<svg width="19" height="20" viewBox="0 0 19 20" fill="none" xmlns="http://www.w3.org/2000/svg">
<g clip-path="url(#clip0_124_87)">
<path d="M16.4339 18.6747C16.922 19.1629 17.7135 19.1629 18.2017 18.6747C18.6898 18.1866 18.6898 17.3951 18.2017 16.907L16.4339 18.6747ZM13.3086 8.59346C13.3086 11.4588 10.9857 13.7816 8.12037 13.7816V16.2816C12.3664 16.2816 15.8086 12.8395 15.8086 8.59346H13.3086ZM8.12037 13.7816C5.25502 13.7816 2.93219 11.4588 2.93219 8.59346H0.43219C0.43219 12.8395 3.87431 16.2816 8.12037 16.2816V13.7816ZM2.93219 8.59346C2.93219 5.7281 5.25502 3.40527 8.12037 3.40527V0.905273C3.87431 0.905273 0.43219 4.34739 0.43219 8.59346H2.93219ZM8.12037 3.40527C10.9857 3.40527 13.3086 5.7281 13.3086 8.59346H15.8086C15.8086 4.34739 12.3664 0.905273 8.12037 0.905273V3.40527ZM11.8352 14.076L16.4339 18.6747L18.2017 16.907L13.603 12.3083L11.8352 14.076Z" fill="white"/>
</g>
<defs>
<clipPath id="clip0_124_87">
<rect width="19" height="19" fill="white" transform="translate(0 0.473145)"/>
</clipPath>
</defs>
</svg>
